<svg width="18" height="18" viewBox="0 0 18 18" fill="none" xmlns="http://www.w3.org/2000/svg">
<path fill-rule="evenodd" clip-rule="evenodd" d="M7.19363 11.4051C9.96038 11.4051 12.3251 11.8244 12.3251 13.4991C12.3251 15.1739 9.97613 15.6051 7.19363 15.6051C4.42613 15.6051 2.06213 15.1896 2.06213 13.5141C2.06213 11.8386 4.41038 11.4051 7.19363 11.4051Z" stroke="#7B6F72" stroke-width="1.2" stroke-linecap="round" stroke-linejoin="round"/>
<path fill-rule="evenodd" clip-rule="evenodd" d="M7.19364 9.01486C5.37714 9.01486 3.90414 7.54261 3.90414 5.72611C3.90414 3.90961 5.37714 2.43736 7.19364 2.43736C9.00939 2.43736 10.4824 3.90961 10.4824 5.72611C10.4891 7.53586 9.02664 9.00811 7.21689 9.01486H7.19364Z" stroke="#7B6F72" stroke-width="1.2" stroke-linecap="round" stroke-linejoin="round"/>
<path d="M12.3623 8.16121C13.5631 7.99246 14.4878 6.96196 14.4901 5.71471C14.4901 4.48546 13.5938 3.46546 12.4186 3.27271" stroke="#7B6F72" stroke-width="1.2" stroke-linecap="round" stroke-linejoin="round"/>
<path d="M13.9466 11.0492C15.1098 11.2224 15.9221 11.6304 15.9221 12.4704C15.9221 13.0487 15.5396 13.4237 14.9216 13.6584" stroke="#7B6F72" stroke-width="1.2" stroke-linecap="round" stroke-linejoin="round"/>
</svg>
